<?xml version="1.0" encoding="utf-8"?>
<!-- Generator: Adobe Illustrator 21.1.0, SVG Export Plug-In . SVG Version: 6.00 Build 0)  -->
<svg version="1.1" id="Calque_1" xmlns="http://www.w3.org/2000/svg" xmlns:xlink="http://www.w3.org/1999/xlink" x="0px" y="0px"
	 width="80px" height="80px" viewBox="0 0 80 80" style="enable-background:new 0 0 80 80;" xml:space="preserve">
<style type="text/css">
	.st0{fill:#00D9BB;}
	.st1{fill:none;stroke:#00D9BB;stroke-width:2;stroke-linecap:round;stroke-linejoin:round;stroke-dasharray:1,6;}
	.st2{fill:none;stroke:#FFFFFF;stroke-width:2;stroke-linecap:round;stroke-linejoin:round;stroke-miterlimit:10;}
	.st3{fill:none;stroke:#FFFFFF;stroke-width:2;stroke-linecap:round;stroke-linejoin:round;}
	.st4{fill:none;stroke:#343A40;stroke-width:2;stroke-linecap:round;stroke-linejoin:round;}
</style>
<g>
	<g>
		<path class="st0" d="M62.2,75c0.1,0,0.2-0.1,0.3-0.1c0.1,0.1,0.2,0.1,0.2,0.2l1.5,1.2c2.3,1.6,4.6,2.5,6.4,3l3.8,0.5
			c0.2,0,0.3,0,0.3,0l-0.1-0.3l-0.9-1.8l-1.3-2.3l-2-3.5l-0.1-0.2l0,0c0.1-0.1,0.2-0.1,0.2-0.2l1.4-1.1c4.4-3.8,7.2-9.4,7.2-15.7
			c0-11.4-9.2-20.7-20.5-20.7s-20.5,9.2-20.5,20.6s9.2,20.7,20.5,20.7h0.1C59.6,75.3,62.2,75,62.2,75z"/>
	</g>
</g>
<title>concept_create_small</title>
<desc>Created with Sketch.</desc>
<g>
	<g>
		<path class="st1" d="M6.5,12.4c-3.3,4.5-5.3,10.1-5.3,16.2c0,8.3,3.7,15.7,9.5,20.6l1.9,1.5c0.1,0.1,0.2,0.2,0.3,0.2l0,0l-0.2,0.3
			L10,55.8l-1.7,3.1l-1.2,2.3L7,61.6c0,0,0.2,0,0.4,0l5-0.7c2.4-0.6,5.4-1.8,8.4-3.9l2-1.5c0.1-0.1,0.2-0.2,0.3-0.2
			c0.2,0,0.2,0.1,0.4,0.1c0,0,3.5,0.4,4.6,0.4h0.1c3.9,0,7.5-0.8,10.9-2.3"/>
		<path class="st1" d="M54.3,35.5c0.6-2.2,0.9-4.6,0.9-7c0-15-12.1-27.1-27-27.1c-5.8,0-11.2,1.8-15.6,5"/>
	</g>
</g>
<g>
	<g>
		<path class="st2" d="M51.3,54.7l4.1,8.3l2.4-1.2c1.6,2.4,4.4,1.6,7,0.4l6.6-3.3c0.8-0.4,1.1-1.3,0.7-2.1s-1.3-1.1-2.1-0.7l1.3-0.6
			c0.8-0.4,1.1-1.3,0.7-2.1s-1.3-1.1-2.1-0.7l0.8-0.4c0.8-0.4,1.1-1.3,0.7-2.1s-1.3-1.1-2.1-0.7l0.9-0.4c0.8-0.4,1.1-1.3,0.7-2.1
			s-1.3-1.1-2.1-0.7l-3.3,1.6L65.1,48l-2.6,1.3c-1.2,0.6-2.1,0-2.1-1.3l0.1-1.7c0.1-2.5-0.8-5-3.8-5L55.1,53l-3.5,1.7H51.3z"/>
		<g>
			<g>
				<line class="st3" x1="51.3" y1="54.7" x2="51.2" y2="54.5"/>
				<polygon class="st3" points="50.4,52.8 50.3,52.6 50,52.7 47.4,54 45.7,54.9 44.4,55.5 44.2,55.6 44.4,55.9 46.5,58.6 
					52.8,66.8 53.8,68.2 54,68.4 54.3,68.3 57.1,66.9 57.3,66.8 57.2,66.5 56.4,65 55.9,64.1 				"/>
				<line class="st3" x1="55.6" y1="63.3" x2="55.5" y2="63"/>
			</g>
		</g>
	</g>
	<g>
		<g>
			<line class="st4" x1="32.9" y1="23.5" x2="47.2" y2="23.5"/>
			<line class="st4" x1="9.8" y1="33.2" x2="41.4" y2="33.2"/>
			<line class="st4" x1="14.2" y1="43" x2="35.6" y2="43"/>
		</g>
		<g>
			<path id="Stroke-9" class="st4" d="M28.8,29l-2.2-6.3L5.8,2C5,1.2,2.7,1.2,1.9,1.9S1,5,1.9,5.8l20.8,20.6L28.8,29z"/>
			<path id="Stroke-11" class="st4" d="M3.5,6.6l3.7-3.7"/>
			<path id="Stroke-13" class="st4" d="M22.9,26l3.7-3.7"/>
		</g>
	</g>
</g>
</svg>
