<?xml version="1.0" encoding="utf-8"?>
<!-- Generator: Adobe Illustrator 21.1.0, SVG Export Plug-In . SVG Version: 6.00 Build 0)  -->
<svg version="1.1" id="Calque_1" xmlns="http://www.w3.org/2000/svg" xmlns:xlink="http://www.w3.org/1999/xlink" x="0px" y="0px"
	 width="80px" height="80px" viewBox="0 0 80 80" enable-background="new 0 0 80 80" xml:space="preserve">
<circle fill="#2EB0A6" cx="69.5" cy="69.5" r="10.5"/>
<path fill="none" stroke="#129CAB" stroke-width="2" stroke-linecap="round" stroke-linejoin="round" stroke-dasharray="1,6" d="
	M66.6,38.1"/>
<g>
	
		<circle fill="none" stroke="#2EB0A6" stroke-width="2" stroke-linecap="round" stroke-linejoin="round" stroke-dasharray="1,6" cx="40" cy="40" r="39.7"/>
	
		<circle fill="none" stroke="#343A40" stroke-width="2" stroke-linecap="round" stroke-linejoin="round" stroke-miterlimit="10" cx="40" cy="27.9" r="17.8"/>
	<g>
		<path fill="none" stroke="#343A40" stroke-width="2" stroke-linecap="round" stroke-linejoin="round" stroke-miterlimit="10" d="
			M71.2,62.9C63,56.6,52,52.7,40,52.7S17,56.6,8.8,62.9"/>
	</g>
	<g>
		<path fill="none" stroke="#343A40" stroke-width="2" stroke-linecap="round" stroke-linejoin="round" stroke-miterlimit="10" d="
			M37.2,28.1c0,1.9-1.6,3.6-3.6,3.6c-1.9,0-3.6-1.6-3.6-3.6"/>
		<path fill="none" stroke="#343A40" stroke-width="2" stroke-linecap="round" stroke-linejoin="round" stroke-miterlimit="10" d="
			M43.3,36.8c0,0-1.1,1.1-3.4,1.1s-3.4-1.1-3.4-1.1"/>
		<path fill="none" stroke="#343A40" stroke-width="2" stroke-linecap="round" stroke-linejoin="round" stroke-miterlimit="10" d="
			M42.8,28.1c0,1.9,1.6,3.6,3.6,3.6s3.6-1.6,3.6-3.6"/>
	</g>
</g>
</svg>
