<?xml version="1.0" encoding="utf-8"?>
<!-- Generator: Adobe Illustrator 21.1.0, SVG Export Plug-In . SVG Version: 6.00 Build 0)  -->
<svg version="1.1" id="Calque_1" xmlns="http://www.w3.org/2000/svg" xmlns:xlink="http://www.w3.org/1999/xlink" x="0px" y="0px"
	 width="80px" height="80px" viewBox="0 0 80 80" style="enable-background:new 0 0 80 80;" xml:space="preserve">
<style type="text/css">
	
		.st0{fill:none;stroke:#7B0051;stroke-width:2;stroke-linecap:round;stroke-linejoin:round;stroke-miterlimit:10;stroke-dasharray:1,6;}
	.st1{fill:none;stroke:#343A40;stroke-width:2;stroke-linecap:round;stroke-linejoin:round;}
	.st2{fill-rule:evenodd;clip-rule:evenodd;fill:#7B0051;}
</style>
<title>concept_create_small</title>
<desc>Created with Sketch.</desc>
<g id="Homepage-V4-Final">
	<g id="New-Homepage-_x23_BigBrand---Final" transform="translate(-533.000000, -3868.000000)">
		<g id="_x30_6-Concept" transform="translate(1.000000, 3624.000000)">
			<g id="Bloc-Concept" transform="translate(441.000000, 190.000000)">
				<g id="concept_create_small" transform="translate(91.000000, 54.000000)">
					<g id="Group-4" transform="translate(8.000000, 7.000000)">
						<path id="Stroke-1" class="st0" d="M56.5,12.9c10.4,12.7,9.9,31.1-1.6,42.6c-10,10-25.3,11.6-37.5,5"/>
						<path id="Stroke-3" class="st0" d="M8.7,53.5C-2.7,40.8-2.6,21.6,9.3,9.8c11.2-11.3,29.2-12,41.8-2.2"/>
					</g>
					<path id="Stroke-5" class="st1" d="M16.1,68.9c2.3-0.8-1-21.2,20.2-21.9L16.1,68.9z M16,76.7c2.8-2.3,3.4-5.3,1.3-6.8
						c-2-1.5-5.9-0.8-8.7,1.5s-3.4,5.3-1.3,6.8S13.3,79,16,76.7z M8.4,64.6c4.2-1.4,25.9,9.4,34.6-5L8.4,64.6z M7.6,67.2
						c-1.3,1.5-3.7,1.8-5.2,0.6c-1.6-1.2-1.8-3.4-0.5-4.9s3.7-1.8,5.2-0.6S8.9,65.7,7.6,67.2z"/>
					<polyline id="Stroke-7" class="st1" points="36.2,47 17,66 43,59.7 					"/>
					<path id="Stroke-9" class="st1" d="M50.3,34.6L78.2,6.9c1.1-1.1,1.1-4.2,0-5.2s-4.2-1-5.3,0.1L45,29.5L42,38L50.3,34.6z"/>
					<path id="Stroke-11" class="st1" d="M71,3l5,5"/>
					<path id="Stroke-13" class="st1" d="M45,29l5,5"/>
				</g>
			</g>
		</g>
	</g>
</g>
<circle class="st2" cx="17" cy="24.7" r="16.5"/>
</svg>
