<?xml version="1.0" encoding="utf-8"?>
<!-- Generator: Adobe Illustrator 21.1.0, SVG Export Plug-In . SVG Version: 6.00 Build 0)  -->
<svg version="1.1" id="Calque_1" xmlns="http://www.w3.org/2000/svg" xmlns:xlink="http://www.w3.org/1999/xlink" x="0px" y="0px"
	 width="80px" height="80px" viewBox="0 0 80 80" style="enable-background:new 0 0 80 80;" xml:space="preserve">
<style type="text/css">
	.st0{fill-rule:evenodd;clip-rule:evenodd;fill:#EE641C;}
	
		.st1{fill:none;stroke:#EE641C;stroke-width:2;stroke-linecap:round;stroke-linejoin:round;stroke-miterlimit:10;stroke-dasharray:1,6;}
	.st2{fill:none;stroke:#343A40;stroke-width:2;stroke-linecap:round;stroke-linejoin:round;stroke-miterlimit:10;}
</style>
<path class="st0" d="M51,4.6C45.2-1.2,36-1,30.3,4.7l-0.1,0.1c-5.7,5.7-5.4,12.6,0,20.7l10.4,15.7l10.4-15.8
	C56.1,17.9,56.8,10.4,51,4.6z M40.8,22c-3.8,0-7-3.1-7-7s3.1-7,7-7s7,3.1,7,7S44.7,22,40.8,22z"/>
<g>
	<line class="st1" x1="0" y1="79.5" x2="80" y2="79.5"/>
	<line class="st2" x1="70.3" y1="79.8" x2="70.3" y2="48.9"/>
	<line class="st2" x1="8.4" y1="47.9" x2="8.4" y2="79.7"/>
	<polyline class="st2" points="62.3,79.8 62.3,55.1 62.1,55 46.6,55 46.6,79.8 	"/>
	<rect x="13.3" y="55.2" class="st2" width="28.3" height="15.6"/>
	<line class="st1" x1="19.5" y1="66.3" x2="36.7" y2="57.1"/>
	<g>
		<path class="st2" d="M43,34H8.5l-3.4,9.5v1.7c0,1.4,1.4,2.5,3.1,2.5s3.1-1.1,3.1-2.5c0,1.4,1.4,2.5,3.1,2.5c1.8,0,3.1-1.1,3.1-2.5
			c0,1.4,1.4,2.5,3.1,2.5c1.8,0,3.1-1.1,3.1-2.5c0,1.4,1.4,2.5,3.1,2.5c1.8,0,3.1-1.1,3.1-2.5c0,1.4,1.4,2.5,3.1,2.5
			c1.8,0,3.1-1.1,3.1-2.5c0,1.4,1.4,2.5,3.1,2.5s3.1-1.1,3.1-2.5c0,1.4,1.4,2.5,3.1,2.5c1.8,0,3.1-1.1,3.1-2.5"/>
		<path class="st2" d="M35.6,34H70l3.4,9.5v1.7c0,1.4-1.4,2.5-3.1,2.5c-1.8,0-3.1-1.1-3.1-2.5c0,1.4-1.4,2.5-3.1,2.5
			c-1.8,0-3.1-1.1-3.1-2.5c0,1.4-1.4,2.5-3.1,2.5c-1.8,0-3.1-1.1-3.1-2.5c0,1.4-1.4,2.5-3.1,2.5c-1.3,0-2.4-0.6-2.8-1.4"/>
	</g>
</g>
</svg>
