<svg viewBox="0 0 73.1 73.1" xmlns="http://www.w3.org/2000/svg"><path d="m60.8 19.9c0 5.2-4.2 9.3-9.5 9.3s-9.5-4.1-9.5-9.3 4.2-9.3 9.5-9.3 9.5 4.2 9.5 9.3m-23.2 45.2c0 4.4-3.7 8.1-8.2 8.1s-8.2-3.6-8.2-8.1 3.7-8.1 8.2-8.1 8.2 3.6 8.2 8.1" fill="#00736a"/><g fill="none" stroke-linecap="round" stroke-linejoin="round" stroke-width="2"><path d="m35 32.9c-.8-.5-1.7-.8-2.3-.8-1.3 0-2.8 0-4.1-.2-.3 0-.7-.1-1.1-.1-1 0-2.2.1-2.8.4-.3.1-.4.4-.6.9-.2.4-.4 1-.8 1.4-.6.7-1.2.7-1.8.7h-1.5c-1.2.1-2.1.4-3.3 1.1-1 .6-1.1 2.3-1.2 3.8-.1 1.3 2.7 3.2 5.5 3.4 3.2.2 4.3 3.2 4.9 5.1.1.5.3 1 .4 1.5.4 1.5.8 3.3 2.7 5.3.3.4.7.6 1 .6.6 0 1.1-.7 1.4-1.1.8-1.3 1.2-3.2.8-4-.8-1.7-.3-3.7.1-5.8l.3-1.2m-8.4-25.5c3.2.9 3.4 2.1 3.5 3.5v.7c.2 1.1 2.3 2.4 4.5 2.4m24.5 14.8.1 1.4c0 1.4-.4 1.9-1 2.5-.3.3-.6.7-1 1.3-1 1.6-1.3 2.6-1.2 2.8h.2c.2 0 .4-.1.7-.1 1.6 0 4.6.8 5.9 1.2m3.3-14.5c-.4 0-.9.1-1.4.2" stroke="#00736a" stroke-dasharray="1 6"/><path d="m25.1 10c10.7-4.4 23.8-2.2 32.7 6.6 11.7 11.4 12 29.8.6 40.9-7.4 7.2-17.7 9.6-27.3 7.4" stroke="#00736a" stroke-dasharray="1 6"/><path d="m27.4 12.4c6-2.2 12.8-2.1 18.9.3m-24.8 44.5c-1-.7-1.9-1.5-2.8-2.4-8-7.9-10.1-19.3-6-28.7m50.5 6.3c1.6 8.1-.6 16.8-7 22.9-6.5 6.3-15.6 8.5-24.1 6.7" stroke="#343a40"/><path d="m17.6 58c-.4-.4-.6-.6-1-1.1-9.3-9.1-11.4-22.5-6.2-33.2" stroke="#00736a" stroke-dasharray="1 6"/><g stroke="#343a40"><path d="m50.2 39.7-6.6 6.5c-1 1-1 2.6 0 3.6s2.7 1 3.8 0l14.5-15.2h.1c4.2-5.3 3.4-12.5-1.3-17.7-3.5-3.9-11.2-6.5-16.7-2.9l-.9.9-1 1c-2.9 2.7-6.8 6.4-11.8 11.1 2.4 2.3 4.9 1.7 7.3-.6l2.9-2.7s3.1 1.3-.1 4.3l-9.4 9c-1 1-1 2.6 0 3.6s2.7 1 3.8 0"/><path d="m45.6 37.1-8.5 8.1c-1 1-1 2.6 0 3.6s2.7 1 3.8 0l2.1-2m-6-1.6c-1 1-2.7 1-3.8 0-1-1-1-2.6 0-3.6l8.9-8.3m-20.8-23.7c-1 .9-1.1 2.5-.1 3.5l2.5 2.6c.9 1 2.6 1.1 3.6.1 1-.9 1.1-2.5.1-3.5l-2.5-2.6c-1-1-2.6-1-3.6-.1zm-3.8 3.4c-1 .9-1.1 2.5-.1 3.5l2.5 2.6c.9 1 2.6 1.1 3.6.1 1-.9 1.1-2.5.1-3.5l-2.5-2.6c-.9-1-2.5-1-3.6-.1z"/><path d="m13.8 16.4c-1 .9-1.1 2.5-.1 3.5l2.5 2.6c.9 1 2.6 1.1 3.6.1 1-.9 1.1-2.5.1-3.5l-2.5-2.6c-1-1-2.5-1.1-3.6-.1z"/><path d="m10.1 19.7c-1 .9-1.1 2.5-.1 3.5l2.5 2.6c.9 1 2.6 1.1 3.6.1 1-.9 1.1-2.5.1-3.5l-2.5-2.6c-1-.9-2.6-1-3.6-.1zm27.4-19.1s-2.5 1.2-2.8 3.5 1.9 3.6 1.9 3.6 2.5-.7 2.8-3-1.9-4.1-1.9-4.1zm-28.3 44.8s-2.6-1-4.5.3-1.4 3.8-1.4 3.8 2.2 1.3 4.1-.1c2-1.3 1.8-4 1.8-4zm-1.5-12s-.7-2.6-3-3.3-4 1.3-4 1.3.3 2.5 2.6 3.2c2.3.6 4.4-1.2 4.4-1.2zm65.4-3.8s-2.4-1.4-4.5-.3-1.9 3.6-1.9 3.6 2 1.5 4.1.5c2.1-1.1 2.3-3.8 2.3-3.8zm-14.5 27.9s.4 2.7 2.6 3.6 4-.9 4-.9 0-2.5-2.2-3.4c-2.2-.8-4.4.7-4.4.7z"/><path d="m58.5 57.7s-2.6 1-3.1 3.2c-.4 2.3 1.6 3.7 1.6 3.7s2.5-.5 3-2.8-1.5-4.1-1.5-4.1zm-30.7-.5c-1.7 0-3.1.9-3.9 2.3-.7-1.4-2.2-2.3-3.9-2.3-2.4 0-4.3 1.9-4.3 4.2s1.5 4.5 3.4 6.2c2 1.8 4.7 3.4 4.7 3.4s2.8-1.6 4.7-3.4c2.1-1.9 3.4-3.9 3.4-6.2.2-2.3-1.7-4.2-4.1-4.2z"/></g></g></svg>