<?xml version="1.0" encoding="utf-8"?>
<!-- Generator: Adobe Illustrator 22.0.1, SVG Export Plug-In . SVG Version: 6.00 Build 0)  -->
<svg version="1.1" id="Calque_1" xmlns="http://www.w3.org/2000/svg" xmlns:xlink="http://www.w3.org/1999/xlink" x="0px" y="0px"
	 viewBox="0 0 79 79" style="enable-background:new 0 0 79 79;" xml:space="preserve">
<style type="text/css">
	.st0{fill:#B6A647;}
	.st1{fill:none;stroke:#343A40;stroke-width:2;stroke-linecap:round;stroke-linejoin:round;}
	.st2{fill:none;stroke:#CC9AA3;stroke-width:2;stroke-linecap:round;stroke-linejoin:round;}
	.st3{fill:none;stroke:#B6A647;stroke-width:2;stroke-linecap:round;stroke-linejoin:round;stroke-dasharray:0.6231,3.7387;}
	.st4{fill:none;stroke:#B6A647;stroke-width:2;stroke-linecap:round;stroke-linejoin:round;}
	.st5{fill:none;stroke:#B6A647;stroke-width:2;stroke-linecap:round;stroke-linejoin:round;stroke-dasharray:1.0183,6.1101;}
	.st6{fill:none;stroke:#B6A647;stroke-width:2;stroke-linecap:round;stroke-linejoin:round;stroke-dasharray:1.0372,6.223;}
	.st7{fill:none;stroke:#B6A467;stroke-width:2;stroke-linecap:round;stroke-linejoin:round;stroke-dasharray:0.9709,5.8257;}
	.st8{fill:none;stroke:#129CAB;stroke-width:2;stroke-linecap:round;stroke-linejoin:round;stroke-dasharray:1,6;}
	.st9{fill:none;}
</style>
<circle class="st0" cx="17.5" cy="17.3" r="17.3"/>
<path class="st1" d="M72.7,31l-0.1,3.6c-0.5,32.3-31.5,42.6-31.5,42.6S10.3,65.7,10.8,33.7l0.4-25.5l31-6.1l30.8,7l-0.1,4.7L72.7,31
	z"/>
<g>
	<g>
		<line class="st2" x1="17.4" y1="24.2" x2="17.4" y2="23.7"/>
		<line class="st3" x1="17.4" y1="20" x2="17.5" y2="17.5"/>
		<polyline class="st4" points="17.5,15.6 17.5,15.1 18,15 		"/>
		<polyline class="st5" points="24,13.8 42,10.3 62.8,15 		"/>
		<polyline class="st4" points="65.8,15.7 66.3,15.8 66.3,16.3 		"/>
		<line class="st6" x1="66.2" y1="22.5" x2="66" y2="41.2"/>
		<line class="st4" x1="66" y1="44.3" x2="66" y2="44.8"/>
	</g>
</g>
<g>
	<g>
		<path class="st7" d="M62,51.9c-0.1,0.1-0.2,0.3-0.2,0.4"/>
		<path class="st7" d="M58.5,57.2c-7.3,9-17.3,12.3-17.3,12.3S18.4,61,17.3,37.6v-1.5"/>
		<line class="st7" x1="17.3" y1="33.2" x2="17.3" y2="32.7"/>
	</g>
</g>
<path class="st8" d="M66.1,37.6"/>
<path class="st9" d="M-1,0h80v80H-1V0z"/>
<g>
	<path class="st1" d="M21,25.9l35.5-6.6c2.1-0.4,4.1,1,4.5,3.1l4.1,22.4c0.4,2.1-1,4.1-3.1,4.4l-35.5,6.6c-2.2,0.4-4.2-1-4.5-3
		l-4.1-22.4C17.5,28.3,18.9,26.3,21,25.9z"/>
	<line class="st1" x1="18.9" y1="36" x2="62" y2="28"/>
	<line class="st1" x1="25" y1="42.6" x2="34.4" y2="40.9"/>
</g>
<image style="overflow:visible;" width="1199" height="782" xlink:href="../../../../../../../../Downloads/EVANEOS COLORS.png"  transform="matrix(0.1496 0 0 0.1496 -197.1508 -23.9059)">
</image>
</svg>
