<?xml version="1.0" encoding="utf-8"?>
<!-- Generator: Adobe Illustrator 21.1.0, SVG Export Plug-In . SVG Version: 6.00 Build 0)  -->
<svg version="1.1" id="Calque_1" xmlns="http://www.w3.org/2000/svg" xmlns:xlink="http://www.w3.org/1999/xlink" x="0px" y="0px"
	 viewBox="0 0 80 80" style="enable-background:new 0 0 80 80;" xml:space="preserve">
<g id="Favoris">
</g>
<path style="fill:#EE641C;" d="M73.1,0H50.8C47,0,44,3,44,6.8v9c0,3.8,3,6.8,6.8,6.8h15.5c1.4,2.8-2.5,9.3-5.5,10.9
	c-0.3,0.2-0.3,0.6-0.1,0.9c0.1,0.3,0.4,0.5,0.8,0.5l0,0c0.1,0,9.4-4.3,12.2-12.3c3.5-0.3,6.3-3.2,6.3-6.8v-9C79.9,3.1,76.9,0,73.1,0
	z"/>
<g>
	
		<path id="Stroke-10_3_" style="fill:none;stroke:#EE641C;stroke-width:2;stroke-linecap:round;stroke-linejoin:round;stroke-miterlimit:10;" d="
		M5.9,3v2"/>
	
		<path id="Stroke-12_3_" style="fill:none;stroke:#EE641C;stroke-width:2;stroke-linecap:round;stroke-linejoin:round;stroke-miterlimit:10;" d="
		M5.9,11v2"/>
	
		<path id="Stroke-14_3_" style="fill:none;stroke:#EE641C;stroke-width:2;stroke-linecap:round;stroke-linejoin:round;stroke-miterlimit:10;" d="
		M11,7.9H9"/>
	
		<path id="Stroke-16_3_" style="fill:none;stroke:#EE641C;stroke-width:2;stroke-linecap:round;stroke-linejoin:round;stroke-miterlimit:10;" d="
		M3,7.9H1"/>
</g>
<g>
	
		<path id="Stroke-10_1_" style="fill:none;stroke:#EE641C;stroke-width:2;stroke-linecap:round;stroke-linejoin:round;stroke-miterlimit:10;" d="
		M13,71l-1.7,1.6"/>
	
		<path id="Stroke-12_1_" style="fill:none;stroke:#EE641C;stroke-width:2;stroke-linecap:round;stroke-linejoin:round;stroke-miterlimit:10;" d="
		M6.6,77.3L5,78.9"/>
	
		<path id="Stroke-14_1_" style="fill:none;stroke:#EE641C;stroke-width:2;stroke-linecap:round;stroke-linejoin:round;stroke-miterlimit:10;" d="
		M13,79l-1.6-1.6"/>
	
		<path id="Stroke-16_1_" style="fill:none;stroke:#EE641C;stroke-width:2;stroke-linecap:round;stroke-linejoin:round;stroke-miterlimit:10;" d="
		M6.6,72.6L5,71"/>
</g>
<g>
	<path style="fill:none;stroke:#EE641C;stroke-width:2;stroke-linecap:round;stroke-linejoin:round;stroke-dasharray:1,6;" d="
		M62.1,42.9l-0.2-6.6c0.5-10.8-10-19.1-22-19.1s-22.7,8.6-22,19.2V43"/>
	<path style="fill:none;stroke:#343A40;stroke-width:2;stroke-linecap:round;stroke-linejoin:round;stroke-miterlimit:10;" d="
		M44.8,72.2c9.9-1.9,18-10.4,17.3-20.4V41"/>
	<g>
		<path style="fill:none;stroke:#343A40;stroke-width:2;stroke-linecap:round;stroke-linejoin:round;stroke-miterlimit:10;" d="
			M35.5,45.6c0,3.2-2.6,5.7-5.7,5.7S24,48.8,24,45.6"/>
		<path style="fill:none;stroke:#343A40;stroke-width:2;stroke-linecap:round;stroke-linejoin:round;stroke-miterlimit:10;" d="
			M45.4,59.9c0,0-1.8,1.8-5.6,1.8s-5.6-1.8-5.6-1.8"/>
		<path style="fill:none;stroke:#343A40;stroke-width:2;stroke-linecap:round;stroke-linejoin:round;stroke-miterlimit:10;" d="
			M44.6,45.6c0,3.2,2.6,5.7,5.7,5.7c3.2,0,5.7-2.6,5.7-5.7"/>
	</g>
	<path style="fill:none;stroke:#343A40;stroke-width:2;stroke-linecap:round;stroke-linejoin:round;stroke-miterlimit:10;" d="
		M13.2,57.7H8.5c-2.5,0-4.7-1.6-4.7-3.7V42c0-2,2-3.7,4.7-3.7h4.7c2.5,0,4.7,1.7,4.7,3.7v12C18,56,15.8,57.7,13.2,57.7z"/>
	<path style="fill:none;stroke:#343A40;stroke-width:2;stroke-linecap:round;stroke-linejoin:round;stroke-miterlimit:10;" d="
		M71.5,58.6h-4.7c-2.5,0-4.7-1.7-4.7-3.7V42c0-2,2-3.7,4.7-3.7h4.7c2.5,0,4.7,1.7,4.7,3.7v12.9C76.2,57,74.2,58.6,71.5,58.6z"/>
	
		<ellipse style="fill:none;stroke:#343A40;stroke-width:2;stroke-linecap:round;stroke-linejoin:round;stroke-miterlimit:10;" cx="39.4" cy="73.5" rx="5.5" ry="5.5"/>
	<path style="fill:none;stroke:#343A40;stroke-width:2;stroke-linecap:round;stroke-linejoin:round;stroke-miterlimit:10;" d="
		M69.1,47.5l-0.2-9.9C69.5,21.5,55.8,9,40,9S10.3,21.8,11.2,37.7v9.9"/>
</g>
</svg>
